<svg xmlns="http://www.w3.org/2000/svg" viewBox="0 0 1200 900" fill="none">
  <rect width="1200" height="900" fill="#0b0b0c" />
  <circle cx="968" cy="186" r="164" fill="#fb923c" fill-opacity="0.18" />
  <path d="M0 730C114 676 184 641 266 612C377 573 472 550 585 552C727 555 835 595 945 613C1051 630 1132 621 1200 593V900H0V730Z" fill="#18181b" />
  <path d="M0 504C152 482 254 468 352 458C465 446 568 438 686 428C829 416 986 397 1200 356V423C1006 465 854 492 718 511C598 528 492 540 384 553C277 566 161 587 0 623V504Z" fill="#27272a" />
  <path d="M0 317C156 295 263 282 372 271C486 259 593 248 718 236C859 223 1009 207 1200 179V243C1027 270 883 291 746 311C622 329 510 345 396 361C283 376 166 394 0 421V317Z" fill="#3f3f46" fill-opacity="0.84" />
</svg>
