<svg xmlns="http://www.w3.org/2000/svg" viewBox="0 0 1600 900" fill="none">
  <rect width="1600" height="900" fill="#0c0a09" />
  <circle cx="1180" cy="220" r="320" fill="#f59e0b" fill-opacity="0.18" />
  <circle cx="420" cy="740" r="360" fill="#7c2d12" fill-opacity="0.28" />
  <path d="M0 620C160 560 280 490 392 450C519 404 612 420 716 446C828 474 914 521 1029 516C1143 511 1265 454 1398 472C1494 485 1557 530 1600 566V900H0V620Z" fill="#1c1917" />
  <path d="M1024 184C952 235 913 318 913 400C913 484 958 565 1035 623C1105 673 1173 688 1257 684C1146 742 997 757 882 703C744 639 662 499 677 361C692 222 803 115 955 104C1024 99 1087 115 1145 147C1102 148 1060 160 1024 184Z" fill="#f5f5f4" fill-opacity="0.16" />
</svg>
